<svg width="46" height="46" viewBox="0 0 46 46" fill="none" xmlns="http://www.w3.org/2000/svg">
<circle cx="23" cy="23" r="23" fill="#D4EAFF"/>
<path d="M23.65 33L17.8 22.74L23.32 12.99H18.67L15.28 19.68L11.89 12.99H7.27L12.79 22.77L6.94 33H11.56L15.28 25.89L19.03 33H23.65ZM30.902 33.36C35.282 33.36 37.682 30.78 37.682 27.27C37.682 20.52 28.772 21.36 28.772 18.24C28.772 17.01 29.672 16.2 31.112 16.2C32.672 16.2 34.202 16.74 35.402 17.88L37.322 14.88C35.792 13.44 33.692 12.66 31.262 12.66C27.122 12.66 24.662 15.36 24.662 18.51C24.662 25.29 33.602 24.09 33.602 27.6C33.602 28.83 32.642 29.82 30.872 29.82C28.892 29.82 27.152 28.92 26.042 27.69L24.062 30.78C25.652 32.37 27.872 33.36 30.902 33.36Z" fill="#333333"/>
</svg>
